<?xml version="1.0" encoding="UTF-8" standalone="no"?>
<!-- Created with Inkscape (http://www.inkscape.org/) -->

<svg
   xmlns:osb="http://www.openswatchbook.org/uri/2009/osb"
   xmlns:dc="http://purl.org/dc/elements/1.1/"
   xmlns:cc="http://creativecommons.org/ns#"
   xmlns:rdf="http://www.w3.org/1999/02/22-rdf-syntax-ns#"
   xmlns:svg="http://www.w3.org/2000/svg"
   xmlns="http://www.w3.org/2000/svg"
   xmlns:xlink="http://www.w3.org/1999/xlink"
   xmlns:sodipodi="http://sodipodi.sourceforge.net/DTD/sodipodi-0.dtd"
   xmlns:inkscape="http://www.inkscape.org/namespaces/inkscape"
   width="744.09448819"
   height="1052.3622047"
   id="svg2"
   version="1.1"
   inkscape:version="0.48.4 r9939"
   sodipodi:docname="New document 1">
  <defs
     id="defs4">
    <linearGradient
       id="linearGradient3867">
      <stop
         style="stop-color:#11fff1;stop-opacity:1;"
         offset="0"
         id="stop3869" />
      <stop
         style="stop-color:#006886;stop-opacity:1;"
         offset="1"
         id="stop3871" />
    </linearGradient>
    <linearGradient
       id="linearGradient3861">
      <stop
         id="stop3863"
         offset="0"
         style="stop-color:#ffba00;stop-opacity:1;" />
      <stop
         id="stop3865"
         offset="1"
         style="stop-color:#ffec00;stop-opacity:1;" />
    </linearGradient>
    <linearGradient
       id="linearGradient3833">
      <stop
         style="stop-color:#fff900;stop-opacity:1;"
         offset="0"
         id="stop3835" />
      <stop
         style="stop-color:#ffa800;stop-opacity:1;"
         offset="1"
         id="stop3837" />
    </linearGradient>
    <linearGradient
       id="linearGradient3819"
       osb:paint="solid">
      <stop
         style="stop-color:#1ad000;stop-opacity:1;"
         offset="0"
         id="stop3821" />
    </linearGradient>
    <linearGradient
       id="linearGradient3773">
      <stop
         style="stop-color:#ff8200;stop-opacity:1;"
         offset="0"
         id="stop3775" />
      <stop
         style="stop-color:#ffec00;stop-opacity:1;"
         offset="1"
         id="stop3777" />
    </linearGradient>
    <radialGradient
       inkscape:collect="always"
       xlink:href="#linearGradient3773"
       id="radialGradient3779"
       cx="263.14474"
       cy="398.79349"
       fx="263.14474"
       fy="398.79349"
       r="61.619305"
       gradientUnits="userSpaceOnUse"
       gradientTransform="matrix(0.89902598,1.0918906,-1.1236027,0.92513668,474.65619,-257.47026)" />
    <radialGradient
       inkscape:collect="always"
       xlink:href="#linearGradient3833"
       id="radialGradient3841"
       cx="198.61749"
       cy="350.71381"
       fx="198.61749"
       fy="350.71381"
       r="17.165998"
       gradientTransform="matrix(0.68994818,0.51711261,-0.98596255,1.315503,446.05975,-210.99704)"
       gradientUnits="userSpaceOnUse" />
    <radialGradient
       inkscape:collect="always"
       xlink:href="#linearGradient3867"
       id="radialGradient3873"
       cx="292.23865"
       cy="388.07187"
       fx="292.23865"
       fy="388.07187"
       r="80.141052"
       gradientTransform="matrix(1.3752183,0.09949183,-0.08690621,1.2012549,-77.578679,-102.16777)"
       gradientUnits="userSpaceOnUse" />
    <radialGradient
       inkscape:collect="always"
       xlink:href="#linearGradient3833"
       id="radialGradient3877"
       gradientUnits="userSpaceOnUse"
       gradientTransform="matrix(-0.37857087,0.77467286,-1.4770448,-0.72180927,911.82594,426.22762)"
       cx="198.61749"
       cy="350.71381"
       fx="198.61749"
       fy="350.71381"
       r="17.165998" />
    <radialGradient
       inkscape:collect="always"
       xlink:href="#linearGradient3833"
       id="radialGradient3881"
       gradientUnits="userSpaceOnUse"
       gradientTransform="matrix(-0.85560948,-0.1066131,0.20327572,-1.6313641,463.76199,990.34029)"
       cx="198.61749"
       cy="350.71381"
       fx="198.61749"
       fy="350.71381"
       r="17.165998" />
    <radialGradient
       inkscape:collect="always"
       xlink:href="#linearGradient3833"
       id="radialGradient3885"
       gradientUnits="userSpaceOnUse"
       gradientTransform="matrix(-0.29721452,-0.80938091,1.5432215,-0.56668991,-159.99703,818.22287)"
       cx="198.61749"
       cy="350.71381"
       fx="198.61749"
       fy="350.71381"
       r="17.165998" />
    <radialGradient
       inkscape:collect="always"
       xlink:href="#linearGradient3833"
       id="radialGradient3889"
       gradientUnits="userSpaceOnUse"
       gradientTransform="matrix(0.6895192,-0.51768447,0.98705309,1.3146847,-242.26131,81.908171)"
       cx="198.61749"
       cy="350.71381"
       fx="198.61749"
       fy="350.71381"
       r="17.165998" />
  </defs>
  <sodipodi:namedview
     id="base"
     pagecolor="#ffffff"
     bordercolor="#666666"
     borderopacity="1.0"
     inkscape:pageopacity="0.0"
     inkscape:pageshadow="2"
     inkscape:zoom="1.979899"
     inkscape:cx="308.65401"
     inkscape:cy="711.09383"
     inkscape:document-units="px"
     inkscape:current-layer="layer1"
     showgrid="false"
     inkscape:window-width="1920"
     inkscape:window-height="995"
     inkscape:window-x="0"
     inkscape:window-y="26"
     inkscape:window-maximized="1" />
  <metadata
     id="metadata7">
    <rdf:RDF>
      <cc:Work
         rdf:about="">
        <dc:format>image/svg+xml</dc:format>
        <dc:type
           rdf:resource="http://purl.org/dc/dcmitype/StillImage" />
        <dc:title></dc:title>
      </cc:Work>
    </rdf:RDF>
  </metadata>
  <g
     inkscape:label="Layer 1"
     inkscape:groupmode="layer"
     id="layer1">
    <path
       style="fill:url(#radialGradient3873);fill-opacity:1;stroke:#00afff;stroke-width:6.7;stroke-linejoin:miter;stroke-miterlimit:4;stroke-opacity:1;stroke-dasharray:none"
       d="m 293.05518,486.62687 c 67.10799,0.51848 96.13201,-47.58443 95.83284,-95.24214 -0.29917,-47.65771 -42.39591,-82.23143 -69.90317,-96.01289 -27.50726,-13.78146 -10.11439,-39.17645 -10.11439,-39.17645 0,0 -33.56998,16.21514 -53.86448,34.48603 -23.91438,21.52981 -52.37741,53.81569 -54.45241,99.82372 -2.075,46.00802 25.39362,95.60325 92.50161,96.12173 z"
       id="path3771"
       inkscape:connector-curvature="0"
       sodipodi:nodetypes="zzzcszz" />
    <path
       sodipodi:nodetypes="cccc"
       inkscape:connector-curvature="0"
       id="path3887"
       d="m 266.91587,462.02011 c 0,0 -28.16936,-24.75091 -44.3344,-49.33248 -2.79769,26.08682 4.75076,38.69572 4.75076,38.69572 0,0 10.86995,9.02564 39.58364,10.63676 z"
       style="fill:url(#radialGradient3889);fill-opacity:1;stroke:none" />
    <path
       style="fill:url(#radialGradient3885);fill-opacity:1;stroke:none"
       d="m 350.63142,440.06275 c 0,0 -31.81388,19.84937 -60.00899,28.2516 24.17637,10.19078 38.4248,6.59273 38.4248,6.59273 0,0 11.77331,-7.81068 21.58419,-34.84433 z"
       id="path3883"
       inkscape:connector-curvature="0"
       sodipodi:nodetypes="cccc" />
    <path
       sodipodi:nodetypes="cccc"
       inkscape:connector-curvature="0"
       id="path3879"
       d="m 361.55599,363.20357 c 0,0 3.06887,37.3725 -2.37956,66.28403 20.13439,-16.82129 23.46378,-31.13487 23.46378,-31.13487 0,0 -1.54907,-14.04345 -21.08422,-35.14916 z"
       style="fill:url(#radialGradient3881);fill-opacity:1;stroke:none" />
    <path
       sodipodi:nodetypes="cccc"
       inkscape:connector-curvature="0"
       id="path3875"
       d="m 223.61335,384.20387 c 0,0 15.87966,-33.96996 34.95583,-56.36776 -25.82756,4.61383 -35.8205,15.38899 -35.8205,15.38899 0,0 -5.62337,12.96131 0.86467,40.97877 z"
       style="fill:url(#radialGradient3841);fill-opacity:1;stroke:none" />
    <path
       style="fill:url(#radialGradient3877);fill-opacity:1;stroke:none"
       d="m 285.47173,319.33081 c 0,0 36.34499,9.22842 61.92242,23.76649 -9.37481,-24.50433 -21.83262,-32.29961 -21.83262,-32.29961 0,0 -13.78583,-3.09331 -40.0898,8.53312 z"
       id="path3817"
       inkscape:connector-curvature="0"
       sodipodi:nodetypes="cccc" />
    <path
       d="m 324.76405,398.79349 a 61.619305,61.619305 0 1 1 -123.23861,0 61.619305,61.619305 0 1 1 123.23861,0 z"
       sodipodi:ry="61.619305"
       sodipodi:rx="61.619305"
       sodipodi:cy="398.79349"
       sodipodi:cx="263.14474"
       id="path3769"
       style="fill:#16bc00;fill-opacity:1;fill-rule:evenodd;stroke:none"
       sodipodi:type="arc"
       transform="matrix(1.2060491,0,0,1.212256,-22.610142,-89.84507)" />
    <path
       transform="matrix(1.1327654,0,0,1.1384739,-3.2026483,-60.297965)"
       sodipodi:type="arc"
       style="fill:#ff2100;fill-opacity:1;fill-rule:evenodd;stroke:none"
       id="path3767"
       sodipodi:cx="263.14474"
       sodipodi:cy="398.79349"
       sodipodi:rx="61.619305"
       sodipodi:ry="61.619305"
       d="m 324.76405,398.79349 a 61.619305,61.619305 0 1 1 -123.23861,0 61.619305,61.619305 0 1 1 123.23861,0 z" />
    <path
       d="m 324.76405,398.79349 a 61.619305,61.619305 0 1 1 -123.23861,0 61.619305,61.619305 0 1 1 123.23861,0 z"
       sodipodi:ry="61.619305"
       sodipodi:rx="61.619305"
       sodipodi:cy="398.79349"
       sodipodi:cx="263.14474"
       id="path3765"
       style="fill:#ffb200;fill-opacity:1;fill-rule:evenodd;stroke:none"
       sodipodi:type="arc"
       transform="matrix(1.0511879,0,0,1.0567025,18.499099,-27.691807)" />
    <path
       transform="matrix(0.96961919,0,0,0.9726032,40.283367,5.8399717)"
       sodipodi:type="arc"
       style="fill:#f9ff00;fill-opacity:1;fill-rule:evenodd;stroke:none"
       id="path3763"
       sodipodi:cx="263.14474"
       sodipodi:cy="398.79349"
       sodipodi:rx="61.619305"
       sodipodi:ry="61.619305"
       d="m 324.76405,398.79349 a 61.619305,61.619305 0 1 1 -123.23861,0 61.619305,61.619305 0 1 1 123.23861,0 z" />
    <path
       d="m 324.76405,398.79349 a 61.619305,61.619305 0 1 1 -123.23861,0 61.619305,61.619305 0 1 1 123.23861,0 z"
       sodipodi:ry="61.619305"
       sodipodi:rx="61.619305"
       sodipodi:cy="398.79349"
       sodipodi:cx="263.14474"
       id="path3761"
       style="fill:#5378d6;fill-opacity:1;fill-rule:evenodd;stroke:none"
       sodipodi:type="arc"
       transform="matrix(0.88730742,0,0,0.89004239,62.169326,38.651636)" />
    <path
       transform="matrix(0.7981637,0,0,0.80091937,85.627057,74.19332)"
       sodipodi:type="arc"
       style="fill:#c288ff;fill-opacity:1;fill-rule:evenodd;stroke:none"
       id="path3759"
       sodipodi:cx="263.14474"
       sodipodi:cy="398.79349"
       sodipodi:rx="61.619305"
       sodipodi:ry="61.619305"
       d="m 324.76405,398.79349 a 61.619305,61.619305 0 1 1 -123.23861,0 61.619305,61.619305 0 1 1 123.23861,0 z" />
    <path
       d="m 324.76405,398.79349 a 61.619305,61.619305 0 1 1 -123.23861,0 61.619305,61.619305 0 1 1 123.23861,0 z"
       sodipodi:ry="61.619305"
       sodipodi:rx="61.619305"
       sodipodi:cy="398.79349"
       sodipodi:cx="263.14474"
       id="path3755"
       style="fill:#8a58be;fill-opacity:1;fill-rule:evenodd;stroke:none"
       sodipodi:type="arc"
       transform="matrix(0.71532656,0,0,0.7167538,107.42521,107.89367)" />
    <path
       transform="matrix(0.6254505,0,0,0.6254505,131.07561,144.62133)"
       sodipodi:type="arc"
       style="fill:#18c100;fill-opacity:1;fill-rule:evenodd;stroke:none"
       id="path3757"
       sodipodi:cx="263.14474"
       sodipodi:cy="398.79349"
       sodipodi:rx="61.619305"
       sodipodi:ry="61.619305"
       d="m 324.76405,398.79349 a 61.619305,61.619305 0 1 1 -123.23861,0 61.619305,61.619305 0 1 1 123.23861,0 z" />
    <path
       sodipodi:type="arc"
       style="fill:url(#radialGradient3779);fill-opacity:1;fill-rule:evenodd;stroke:none"
       id="path2985"
       sodipodi:cx="263.14474"
       sodipodi:cy="398.79349"
       sodipodi:rx="61.619305"
       sodipodi:ry="61.619305"
       d="m 324.76405,398.79349 a 61.619305,61.619305 0 1 1 -123.23861,0 61.619305,61.619305 0 1 1 123.23861,0 z"
       transform="matrix(0.5324585,0,0,0.5324585,155.81102,182.07693)" />
  </g>
</svg>
